<?xml version="1.0" encoding="UTF-8" standalone="no"?>
<!-- Created with Inkscape (http://www.inkscape.org/) -->

<svg
   xmlns:dc="http://purl.org/dc/elements/1.1/"
   xmlns:cc="http://creativecommons.org/ns#"
   xmlns:rdf="http://www.w3.org/1999/02/22-rdf-syntax-ns#"
   xmlns:svg="http://www.w3.org/2000/svg"
   xmlns="http://www.w3.org/2000/svg"
   xmlns:xlink="http://www.w3.org/1999/xlink"
   xmlns:sodipodi="http://sodipodi.sourceforge.net/DTD/sodipodi-0.dtd"
   xmlns:inkscape="http://www.inkscape.org/namespaces/inkscape"
   width="83.958084"
   height="84.066231"
   id="svg2"
   version="1.1"
   inkscape:version="0.48.4 r9939"
   sodipodi:docname="New document 1">
  <defs
     id="defs4">
    <linearGradient
       y2="39.684914"
       x2="34.534348"
       y1="12.284524"
       x1="14.462892"
       gradientTransform="matrix(1.241935,0,0,1.241935,-5.027508,-7.208988)"
       gradientUnits="userSpaceOnUse"
       id="linearGradient3760"
       xlink:href="#linearGradient3264"
       inkscape:collect="always" />
    <linearGradient
       gradientTransform="matrix(0.200685,0,0,0.200685,-0.585758,-1.050787)"
       y2="248.6311"
       x2="153.0005"
       y1="15.4238"
       x1="99.777298"
       gradientUnits="userSpaceOnUse"
       id="linearGradient53551"
       xlink:href="#aigrd1"
       inkscape:collect="always" />
    <linearGradient
       y2="248.6311"
       x2="153.0005"
       y1="15.4238"
       x1="99.777298"
       gradientUnits="userSpaceOnUse"
       id="aigrd1">
      <stop
         id="stop53300"
         style="stop-color:#184375"
         offset="0" />
      <stop
         id="stop53302"
         style="stop-color:#C8BDDC"
         offset="1" />
    </linearGradient>
    <linearGradient
       id="linearGradient2300">
      <stop
         style="stop-color:#000000;stop-opacity:0.32673267;"
         offset="0.0000000"
         id="stop2302" />
      <stop
         style="stop-color:#000000;stop-opacity:0;"
         offset="1"
         id="stop2304" />
    </linearGradient>
    <linearGradient
       gradientTransform="matrix(1.241935,0,0,1.241935,-5.027508,-7.208988)"
       y2="39.684914"
       x2="34.534348"
       y1="12.284524"
       x1="14.462892"
       gradientUnits="userSpaceOnUse"
       id="linearGradient3281"
       xlink:href="#linearGradient3264"
       inkscape:collect="always" />
    <linearGradient
       id="linearGradient3264">
      <stop
         id="stop3266"
         offset="0"
         style="stop-color:#c9c9c9;stop-opacity:1;" />
      <stop
         style="stop-color:#f8f8f8;stop-opacity:1;"
         offset="0.25"
         id="stop3276" />
      <stop
         style="stop-color:#e2e2e2;stop-opacity:1;"
         offset="0.5"
         id="stop3272" />
      <stop
         id="stop3274"
         offset="0.75"
         style="stop-color:#b0b0b0;stop-opacity:1;" />
      <stop
         id="stop3268"
         offset="1"
         style="stop-color:#c9c9c9;stop-opacity:1;" />
    </linearGradient>
    <inkscape:perspective
       id="perspective31"
       inkscape:persp3d-origin="24 : 16 : 1"
       inkscape:vp_z="48 : 24 : 1"
       inkscape:vp_y="0 : 1000 : 0"
       inkscape:vp_x="0 : 24 : 1"
       sodipodi:type="inkscape:persp3d" />
    <linearGradient
       inkscape:collect="always"
       xlink:href="#aigrd1"
       id="linearGradient3058"
       gradientUnits="userSpaceOnUse"
       gradientTransform="matrix(0.200685,0,0,0.200685,31.257345,48.954237)"
       x1="99.777298"
       y1="15.4238"
       x2="153.0005"
       y2="248.6311" />
    <radialGradient
       inkscape:collect="always"
       xlink:href="#linearGradient2300"
       id="radialGradient3063"
       gradientUnits="userSpaceOnUse"
       gradientTransform="matrix(1.399258,-2.234445e-7,8.196178e-8,0.513264,4.365074,4.839285)"
       cx="14.287618"
       cy="68.872971"
       fx="14.287618"
       fy="72.568001"
       r="11.68987" />
    <linearGradient
       inkscape:collect="always"
       xlink:href="#aigrd1-0"
       id="linearGradient3058-4"
       gradientUnits="userSpaceOnUse"
       gradientTransform="matrix(0.15326381,0,0,0.15242422,20.415269,34.610349)"
       x1="99.777298"
       y1="15.4238"
       x2="153.0005"
       y2="248.6311" />
    <linearGradient
       y2="248.6311"
       x2="153.0005"
       y1="15.4238"
       x1="99.777298"
       gradientUnits="userSpaceOnUse"
       id="aigrd1-0">
      <stop
         id="stop53300-9"
         style="stop-color:#184375"
         offset="0" />
      <stop
         id="stop53302-4"
         style="stop-color:#C8BDDC"
         offset="1" />
    </linearGradient>
    <radialGradient
       inkscape:collect="always"
       xlink:href="#linearGradient2300-8"
       id="radialGradient3063-8"
       gradientUnits="userSpaceOnUse"
       gradientTransform="matrix(1.399258,-2.234445e-7,8.196178e-8,0.513264,4.365074,4.839285)"
       cx="14.287618"
       cy="68.872971"
       fx="14.287618"
       fy="72.568001"
       r="11.68987" />
    <linearGradient
       id="linearGradient2300-8">
      <stop
         style="stop-color:#000000;stop-opacity:0.32673267;"
         offset="0.0000000"
         id="stop2302-2" />
      <stop
         style="stop-color:#000000;stop-opacity:0;"
         offset="1"
         id="stop2304-4" />
    </linearGradient>
  </defs>
  <sodipodi:namedview
     id="base"
     pagecolor="#ffffff"
     bordercolor="#666666"
     borderopacity="1.0"
     inkscape:pageopacity="0.0"
     inkscape:pageshadow="2"
     inkscape:zoom="10.610557"
     inkscape:cx="19.929403"
     inkscape:cy="41.225866"
     inkscape:document-units="px"
     inkscape:current-layer="layer1"
     showgrid="false"
     fit-margin-top="12"
     fit-margin-left="7"
     fit-margin-right="6"
     fit-margin-bottom="8"
     inkscape:window-width="1920"
     inkscape:window-height="1138"
     inkscape:window-x="-8"
     inkscape:window-y="-8"
     inkscape:window-maximized="1" />
  <metadata
     id="metadata7">
    <rdf:RDF>
      <cc:Work
         rdf:about="">
        <dc:format>image/svg+xml</dc:format>
        <dc:type
           rdf:resource="http://purl.org/dc/dcmitype/StillImage" />
        <dc:title></dc:title>
      </cc:Work>
    </rdf:RDF>
  </metadata>
  <g
     inkscape:label="Layer 1"
     inkscape:groupmode="layer"
     id="layer1"
     transform="translate(-55.635023,-23.744683)">
    <path
       sodipodi:type="arc"
       style="color:#000000;fill:url(#radialGradient3063);fill-opacity:1;fill-rule:evenodd;stroke:none;stroke-width:0.50000042;marker:none;visibility:visible;display:inline;overflow:visible"
       id="path1538"
       sodipodi:cx="24.357143"
       sodipodi:cy="38.714287"
       sodipodi:rx="19.928572"
       sodipodi:ry="9.837245"
       d="m 44.285715,38.714287 c 0,5.43296 -8.922325,9.837245 -19.928572,9.837245 -11.006246,0 -19.9285713,-4.404285 -19.9285713,-9.837245 0,-5.432961 8.9223253,-9.837245 19.9285713,-9.837245 11.006247,0 19.928572,4.404284 19.928572,9.837245 z"
       transform="matrix(1.18638,0,0,1.18638,81.053418,42.210346)" />
    <path
       id="path3243"
       d="m 108.29263,50.952494 c -0.47317,0.03238 -0.93309,0.105662 -1.39785,0.158846 l -0.0318,0 -1.11193,6.067951 c -1.81235,0.412738 -3.51741,1.11319 -5.05133,2.06501 l -4.987792,-3.58994 c -1.348332,1.046804 -2.575301,2.267668 -3.653479,3.58994 l 3.462862,5.05133 c -1.051422,1.606783 -1.842083,3.441487 -2.287395,5.369025 -7.6e-5,0.0091 -6.2e-5,0.03018 0,0.03177 l -6.036181,0.95308 c -0.110357,0.901369 -0.158847,1.832904 -0.158847,2.763936 0,0.761753 0.02103,1.513329 0.09531,2.255625 l 6.036182,1.080159 c 0.429297,2.096161 1.244809,4.053785 2.382703,5.782026 l -3.58994,4.924254 c 1.028135,1.276384 2.215105,2.43848 3.494632,3.462861 l 5.083105,-3.494631 c 1.77647,1.133244 3.75954,1.927892 5.9091,2.319165 l 0.95308,6.004411 c 0.67725,0.06165 1.37178,0.06354 2.06501,0.06354 0.97868,-10e-7 1.91352,-0.03709 2.85924,-0.158847 l 1.1437,-6.131489 c 2.04093,-0.507904 3.95818,-1.388998 5.62318,-2.573319 l 4.89248,3.55817 c 1.26877,-1.079445 2.42899,-2.320188 3.4311,-3.653479 L 123.8596,81.70525 c 0.9636,-1.664197 1.63129,-3.500366 1.9697,-5.464333 l 6.00441,-0.953081 c 0.0527,-0.62659 0.0635,-1.234265 0.0635,-1.874393 0,-1.1124 -0.1293,-2.203101 -0.28592,-3.272246 l -6.09972,-1.111928 c -0.47801,-1.76508 -1.26232,-3.41188 -2.25563,-4.892484 l 3.58994,-4.924254 c -1.11277,-1.360855 -2.38212,-2.617981 -3.78056,-3.685247 l -5.17841,3.55817 c -1.48832,-0.880228 -3.08998,-1.555614 -4.82894,-1.937932 l -0.95308,-6.036182 c -0.86748,-0.102043 -1.7421,-0.158846 -2.63686,-0.158846 -0.24183,0 -0.49071,-0.0076 -0.7307,0 -0.11699,0.0037 -0.23277,-0.0068 -0.34946,0 -0.0316,0.0018 -0.0638,-0.0022 -0.0953,0 z m 0.826,15.439916 c 0.11607,-0.0059 0.23195,0 0.34947,0 3.7606,0 6.83041,3.06981 6.83041,6.830416 0,3.760605 -3.06981,6.798646 -6.83041,6.798646 -3.76061,10e-7 -6.79865,-3.038041 -6.79865,-6.798646 0,-3.643086 2.85121,-6.647839 6.44918,-6.830416 z"
       style="color:#000000;fill:url(#linearGradient3058);fill-opacity:1;fill-rule:nonzero;stroke:#3f4561;stroke-width:1;stroke-linecap:round;stroke-linejoin:round;stroke-miterlimit:4;stroke-opacity:1;stroke-dasharray:none;stroke-dashoffset:0;marker:none;visibility:visible;display:inline;overflow:visible"
       inkscape:r_cx="true"
       inkscape:r_cy="true"
       inkscape:connector-curvature="0" />
    <path
       transform="matrix(0.616598,0,0,0.616598,94.975125,58.544698)"
       d="m 36.239223,23.781593 c 0,7.029438 -5.698484,12.727923 -12.727922,12.727923 -7.029437,0 -12.727922,-5.698485 -12.727922,-12.727923 0,-7.029437 5.698485,-12.727922 12.727922,-12.727922 7.029438,0 12.727922,5.698485 12.727922,12.727922 z"
       sodipodi:ry="12.727922"
       sodipodi:rx="12.727922"
       sodipodi:cy="23.781593"
       sodipodi:cx="23.511301"
       id="path3283"
       style="opacity:0.64772728;color:#000000;fill:none;stroke:#ffffff;stroke-width:1.62180054;stroke-linecap:butt;stroke-linejoin:miter;stroke-miterlimit:4;stroke-opacity:1;stroke-dasharray:none;stroke-dashoffset:0;marker:none;visibility:visible;display:inline;overflow:visible"
       sodipodi:type="arc"
       inkscape:r_cx="true"
       inkscape:r_cy="true" />
    <path
       sodipodi:nodetypes="ccccccccccccccccccccccccccccccccc"
       style="opacity:0.34659089;color:#000000;fill:none;stroke:#ffffff;stroke-width:0.99999923;stroke-linecap:butt;stroke-linejoin:miter;stroke-miterlimit:4;stroke-opacity:1;stroke-dasharray:none;stroke-dashoffset:0;marker:none;visibility:visible;display:inline;overflow:visible"
       d="m 107.58891,52.153491 -0.89278,5.875057 c -1.69877,0.386871 -4.82358,1.570079 -6.26137,2.462247 l -4.74968,-3.545144 c -1.26383,0.981199 -1.350501,1.047739 -2.361108,2.287142 l 3.434196,5.093219 c -0.985526,1.506083 -2.169267,4.189994 -2.594285,6.107942 0,0 -6.01779,1.014425 -6.01779,1.014425 -0.103441,0.844879 -0.05373,2.653173 0.01589,3.348948 l 5.748217,1.035517 c 0.402393,1.96479 1.908227,5.127412 2.974807,6.747341 l -3.635002,4.802558 c 0.963699,1.196391 1.156572,1.30587 2.355908,2.266051 l 4.860627,-3.561037 c 1.66514,1.062221 4.97029,2.354376 6.98513,2.721127 l 0.79773,5.801092 c 0.63481,0.05778 2.38853,0.219875 3.27499,0.105749 l 0.89278,-6.03888 c 1.91302,-0.476072 5.21847,-1.832925 6.77912,-2.943023 l 4.85544,3.50816 c 1.18925,-1.011792 1.19991,-1.164249 2.13921,-2.41398 l -3.59802,-5.114311 c 0.90321,-1.5599 2.07109,-4.610599 2.38828,-6.45148 l 5.89095,-0.977443 c 0.0494,-0.58732 0.0518,-2.225166 -0.0951,-3.227305 l -6.00189,-1.035517 c -0.44805,-1.654459 -1.98568,-4.635769 -2.91674,-6.02358 l 3.81472,-4.802556 c -1.04302,-1.275568 -1.43083,-1.450586 -2.74163,-2.450965 l -5.02445,3.598018 c -1.39505,-0.825061 -4.1769,-2.082797 -5.80688,-2.441155 l -0.88759,-5.748217 c -0.81311,-0.09565 -3.15904,-0.05318 -3.62372,0 z"
       id="path3285"
       inkscape:r_cx="true"
       inkscape:r_cy="true"
       inkscape:connector-curvature="0" />
    <path
       id="path3243-5"
       d="m 79.247377,36.128065 c -0.361361,0.02459 -0.712604,0.08025 -1.067543,0.120647 l -0.02428,0 -0.849185,4.608728 c -1.384098,0.313483 -2.686258,0.84549 -3.857718,1.568416 l -3.809194,-2.72663 c -1.029725,0.795068 -1.966766,1.722338 -2.790174,2.72663 l 2.6446,3.836585 c -0.802975,1.220383 -1.406806,2.613877 -1.746892,4.07788 -5.8e-5,0.0069 -4.7e-5,0.02292 0,0.02413 l -4.609852,0.723883 c -0.08428,0.684608 -0.121312,1.392127 -0.121312,2.099264 0,0.578567 0.01606,1.149404 0.07279,1.713192 l 4.609853,0.820402 c 0.327855,1.592076 0.950664,3.07893 1.819678,4.391563 l -2.741649,3.740068 c 0.78519,0.969439 1.691683,1.852074 2.668862,2.630111 l 3.881984,-2.654241 c 1.356697,0.860721 2.871174,1.464272 4.5128,1.761452 l 0.72787,4.560468 c 0.517219,0.04682 1.047634,0.04826 1.577056,0.04826 0.747421,-1e-6 1.461361,-0.02817 2.183611,-0.120647 l 0.873451,-4.656987 c 1.558665,-0.385763 3.022876,-1.054972 4.294442,-1.954487 l 3.736403,2.702501 c 0.968964,-0.81986 1.855028,-1.762229 2.620343,-2.77489 L 91.135935,59.48539 c 0.735904,-1.26399 1.245821,-2.658597 1.504266,-4.150269 l 4.585588,-0.723884 c 0.04025,-0.475907 0.0485,-0.937448 0.0485,-1.423638 0,-0.84489 -0.09875,-1.673299 -0.218358,-2.485335 l -4.658377,-0.844532 c -0.365058,-1.340613 -0.964038,-2.59139 -1.722633,-3.715938 l 2.74165,-3.740068 C 92.566735,41.36813 91.597328,40.413318 90.529334,39.602708 l -3.954769,2.702501 c -1.136635,-0.668551 -2.359828,-1.18152 -3.687878,-1.471898 l -0.727874,-4.584599 c -0.662497,-0.0775 -1.330448,-0.120647 -2.013779,-0.120647 -0.184686,0 -0.374757,-0.0058 -0.558038,0 -0.08935,0.0028 -0.177767,-0.0052 -0.266884,0 -0.02413,0.0014 -0.04872,-0.0017 -0.07278,0 z m 0.630819,11.726921 c 0.08864,-0.0045 0.177141,0 0.266892,0 2.871986,0 5.216411,2.331581 5.216411,5.187836 0,2.856253 -2.344425,5.163705 -5.216411,5.163705 -2.871991,10e-7 -5.192153,-2.307452 -5.192153,-5.163705 0,-2.766996 2.177479,-5.049165 4.925261,-5.187836 z"
       style="color:#000000;fill:url(#linearGradient3058-4);fill-opacity:1;fill-rule:nonzero;stroke:#3f4561;stroke-width:0.76160866;stroke-linecap:round;stroke-linejoin:round;stroke-miterlimit:4;stroke-opacity:1;stroke-dasharray:none;stroke-dashoffset:0;marker:none;visibility:visible;display:inline;overflow:visible"
       inkscape:r_cx="true"
       inkscape:r_cy="true"
       inkscape:connector-curvature="0" />
    <path
       transform="matrix(0.47089798,0,0,0.46831835,69.076753,41.894494)"
       d="m 36.239223,23.781593 c 0,7.029438 -5.698484,12.727923 -12.727922,12.727923 -7.029437,0 -12.727922,-5.698485 -12.727922,-12.727923 0,-7.029437 5.698485,-12.727922 12.727922,-12.727922 7.029438,0 12.727922,5.698485 12.727922,12.727922 z"
       sodipodi:ry="12.727922"
       sodipodi:rx="12.727922"
       sodipodi:cy="23.781593"
       sodipodi:cx="23.511301"
       id="path3283-1"
       style="opacity:0.64772728;color:#000000;fill:none;stroke:#ffffff;stroke-width:1.62180054;stroke-linecap:butt;stroke-linejoin:miter;stroke-miterlimit:4;stroke-opacity:1;stroke-dasharray:none;stroke-dashoffset:0;marker:none;visibility:visible;display:inline;overflow:visible"
       sodipodi:type="arc"
       inkscape:r_cx="true"
       inkscape:r_cy="true" />
    <path
       sodipodi:nodetypes="ccccccccccccccccccccccccccccccccc"
       style="opacity:0.34659089;color:#000000;fill:none;stroke:#ffffff;stroke-width:0.76160812;stroke-linecap:butt;stroke-linejoin:miter;stroke-miterlimit:4;stroke-opacity:1;stroke-dasharray:none;stroke-dashoffset:0;marker:none;visibility:visible;display:inline;overflow:visible"
       d="m 78.709944,37.040246 -0.681819,4.462222 c -1.297357,0.293836 -3.683785,1.192506 -4.78183,1.870125 l -3.627347,-2.692607 c -0.965191,0.74524 -1.031382,0.795779 -1.803186,1.73713 l 2.622707,3.8684 c -0.752649,1.1439 -1.656676,3.182383 -1.981264,4.639102 0,0 -4.595806,0.770476 -4.595806,0.770476 -0.079,0.641702 -0.04103,2.015137 0.01214,2.543592 l 4.389933,0.786496 c 0.307308,1.492297 1.457319,3.89437 2.27187,5.124738 l -2.776064,3.647638 c 0.735981,0.908683 0.883278,0.991834 1.799215,1.72111 l 3.712078,-2.704677 c 1.271673,0.806777 3.795827,1.788195 5.334567,2.066749 l 0.609229,4.406044 c 0.484807,0.04388 1.824129,0.167 2.501121,0.08032 l 0.681819,-4.586649 c 1.460984,-0.361586 3.985367,-1.392143 5.177241,-2.235284 l 3.708116,2.664517 c 0.908234,-0.768476 0.916375,-0.88427 1.633722,-1.833466 l -2.74782,-3.88442 c 0.689784,-1.184775 1.581698,-3.501841 1.823937,-4.900026 l 4.498934,-0.742388 c 0.03773,-0.446082 0.03956,-1.690058 -0.07263,-2.451202 L 91.835143,50.61169 c -0.342177,-1.256594 -1.516471,-3.520958 -2.227524,-4.575028 l 2.913314,-3.647636 c -0.796556,-0.968819 -1.092727,-1.101748 -2.09379,-1.861556 l -3.837189,2.732766 C 85.524549,42.633585 83.400041,41.67831 82.155216,41.40613 L 81.47736,37.040246 c -0.620974,-0.07265 -2.412569,-0.04039 -2.767447,0 z"
       id="path3285-7"
       inkscape:r_cx="true"
       inkscape:r_cy="true"
       inkscape:connector-curvature="0" />
  </g>
</svg>
